<svg xmlns="http://www.w3.org/2000/svg" xmlns:xlink="http://www.w3.org/1999/xlink" version="1.1" x="0px" y="0px" viewBox="0 0 100 125" enable-background="new 0 0 100 100" xml:space="preserve"><g><path d="M81.007,18.46c-1.58-0.8-4.556-0.834-6.322,0.423c1.672,4.284,7.418,7.861,13.124,7.12   c-0.157-4.211-2.479-5.785-2.479-5.785c1.685-3.077,4.405-7.956,9.664-10.227c0.131-2.344-1.921-4.982-3.826-4.835   C87.359,7.793,82.692,12.892,81.007,18.46z"/><path d="M88.195,28.978c-0.628,0.082-1.271,0.123-1.91,0.123c-6.142,0-12.293-3.883-14.358-9.043   c-7.611,4.361-13.62,17.534-20.09,27.914C34.003,76.578,22.344,82.353,5.884,91.61c-1.652,0.929-0.812,3.456,1.069,3.225   c31.604-3.869,51.596-17.418,68.039-37.464C82.029,48.794,89.2,37.342,88.6,28.925L88.195,28.978z"/></g><text x="0" y="115" fill="#000000" font-size="5px" font-weight="bold" font-family="'Helvetica Neue', Helvetica, Arial-Unicode, Arial, Sans-serif">Created by fauzan akbar</text><text x="0" y="120" fill="#000000" font-size="5px" font-weight="bold" font-family="'Helvetica Neue', Helvetica, Arial-Unicode, Arial, Sans-serif">from the Noun Project</text></svg>